<svg width="56" height="56" viewBox="0 0 56 56" fill="none" xmlns="http://www.w3.org/2000/svg">
<rect width="56" height="56" rx="8" fill="white"/>
<path d="M14.2938 28C14.2937 28.0003 14.186 33.3385 15.6375 36.2784C18.1375 41.3421 22.8923 44.2898 27.7313 44.2898C35.7938 44.2898 40.3625 36.2784 40.3625 36.2784H48.9625C48.9602 36.2838 42.5099 51.5 27.7313 51.5C12.95 51.5 7.32556 37.6136 7.0375 36.5455C6.5334 34.6761 6.5 28 6.5 28V23.7273H20.2829L8.1125 16.7455L10.2625 13.0455L22.5137 20.0737L15.6375 8.23864L19.3612 6.10227L25.85 17.2697V4.5H30.15V18.1282L37.1375 6.10227L40.8617 8.23864L34.2059 19.6929L45.7942 13.0455L47.9442 16.7455L35.7738 23.7273H49.5V28H14.2938Z" fill="#7A57FB"/>
</svg>
