<svg width="282" height="72" viewBox="0 0 282 72" fill="none" xmlns="http://www.w3.org/2000/svg">
<path d="M11.9625 36C11.9625 36.0004 11.7972 44.1781 14.025 48.6818C17.8622 56.439 25.1603 60.9545 32.5875 60.9545C44.9625 60.9545 51.975 48.6818 51.975 48.6818H65.175C65.1715 48.6901 55.2709 72 32.5875 72C9.90001 72 1.26714 50.7273 0.825 49.0909C0.0512578 46.2273 0 36 0 36V29.4545H21.1551L2.475 18.7591L5.775 13.0909L24.5792 23.8575L14.025 5.72727L19.7404 2.45455L29.7 19.5621V0H36.3V20.8772L47.025 2.45455L52.7412 5.72727L42.5254 23.2742L60.312 13.0909L63.612 18.7591L44.9319 29.4545H66V36H11.9625Z" fill="#7A57FB"/>
<path d="M274.585 62.7877V25.8895H280.422V62.7877H274.585ZM277.539 17.4119C276.45 17.4119 275.5 17.1108 274.69 16.5086C273.902 15.8832 273.508 15.0378 273.508 13.9723C273.508 12.9299 273.902 12.1077 274.69 11.5054C275.5 10.88 276.45 10.5674 277.539 10.5674C278.627 10.5674 279.565 10.88 280.353 11.5054C281.14 12.1077 281.534 12.9299 281.534 13.9723C281.534 15.0378 281.14 15.8832 280.353 16.5086C279.565 17.1108 278.627 17.4119 277.539 17.4119Z" fill="#180F38"/>
<path d="M246.192 63.4478C243.551 63.4478 241.351 62.9961 239.591 62.0928C237.83 61.1663 236.429 59.9734 235.387 58.5142C234.367 57.0549 233.638 55.4798 233.198 53.789C232.781 52.0749 232.572 50.4304 232.572 48.8553C232.572 47.9751 232.572 47.0718 232.572 46.1453C232.572 45.1956 232.572 44.2459 232.572 43.2963V25.8895H238.514V42.5319C238.514 43.3889 238.514 44.2343 238.514 45.0682C238.514 45.9021 238.514 46.6896 238.514 47.4308C238.514 49.307 238.768 51.0442 239.278 52.6424C239.811 54.2406 240.726 55.5377 242.023 56.5337C243.32 57.5066 245.103 57.993 247.373 57.993C249.504 57.993 251.369 57.356 252.967 56.0821C254.565 54.785 255.816 53.1751 256.719 51.2526C257.623 49.307 258.074 47.3729 258.074 45.4504L261.514 46.8749C261.514 48.9132 261.155 50.9168 260.437 52.8856C259.719 54.8313 258.688 56.6032 257.345 58.2015C256.025 59.7997 254.415 61.0736 252.515 62.0233C250.639 62.973 248.531 63.4478 246.192 63.4478ZM258.074 62.7877V25.8895H263.981V62.7877H258.074Z" fill="#180F38"/>
<path d="M221.762 8.48271V62.7877H215.925V8.48271H221.762Z" fill="#180F38"/>
<path d="M187.278 63.4478C183.572 63.4478 180.295 62.6255 177.446 60.981C174.62 59.3133 172.396 57.0433 170.775 54.1711C169.177 51.2758 168.378 47.9867 168.378 44.3038C168.378 40.621 169.177 37.355 170.775 34.506C172.396 31.657 174.62 29.4218 177.446 27.8004C180.295 26.179 183.572 25.3683 187.278 25.3683C190.984 25.3683 194.25 26.179 197.076 27.8004C199.925 29.4218 202.149 31.657 203.747 34.506C205.369 37.355 206.179 40.621 206.179 44.3038C206.179 47.9867 205.369 51.2758 203.747 54.1711C202.149 57.0433 199.925 59.3133 197.076 60.981C194.25 62.6255 190.984 63.4478 187.278 63.4478ZM187.278 58.0277C189.826 58.0277 192.073 57.4602 194.019 56.3253C195.964 55.1903 197.482 53.5921 198.57 51.5306C199.682 49.4691 200.238 47.0602 200.238 44.3038C200.238 41.5475 199.682 39.1617 198.57 37.1465C197.482 35.1082 195.964 33.5448 194.019 32.4561C192.073 31.3443 189.826 30.7884 187.278 30.7884C184.754 30.7884 182.507 31.3443 180.538 32.4561C178.592 33.5448 177.064 35.1082 175.952 37.1465C174.863 39.1617 174.319 41.5475 174.319 44.3038C174.319 47.0602 174.863 49.4691 175.952 51.5306C177.064 53.5921 178.592 55.1903 180.538 56.3253C182.507 57.4602 184.754 58.0277 187.278 58.0277Z" fill="#180F38"/>
<path d="M164.488 25.8895L152.119 62.7877H144.371L131.724 25.8895H137.839L148.714 59.6607H147.776L158.373 25.8895H164.488Z" fill="#180F38"/>
<path d="M93.3354 46.7012V41.4201H121.86L120.818 43.1573C120.818 43.0183 120.818 42.8909 120.818 42.7751C120.818 42.6361 120.818 42.5087 120.818 42.3929C120.818 40.262 120.366 38.3163 119.463 36.5559C118.583 34.7724 117.263 33.3479 115.502 32.2824C113.742 31.2169 111.564 30.6842 108.97 30.6842C106.353 30.6842 104.048 31.2401 102.056 32.3519C100.064 33.4637 98.5123 35.0388 97.4005 37.0771C96.2887 39.0922 95.7328 41.5012 95.7328 44.3038C95.7328 47.1529 96.2655 49.6081 97.331 51.6696C98.4196 53.7311 99.96 55.3177 101.952 56.4295C103.944 57.5413 106.307 58.0972 109.04 58.0972C110.985 58.0972 112.676 57.9004 114.112 57.5066C115.548 57.0897 116.73 56.5453 117.656 55.8736C118.606 55.1787 119.324 54.4259 119.81 53.6153C120.297 52.8046 120.586 51.9939 120.679 51.1832H126.585C126.47 52.6656 126.006 54.1364 125.196 55.5957C124.385 57.0549 123.238 58.3868 121.756 59.5912C120.274 60.7725 118.455 61.7222 116.301 62.4402C114.147 63.1583 111.669 63.5173 108.866 63.5173C105.16 63.5173 101.894 62.7066 99.0682 61.0852C96.2423 59.4638 94.0187 57.217 92.3973 54.3449C90.7991 51.4727 90 48.172 90 44.4428C90 40.6673 90.8107 37.355 92.4321 34.506C94.0535 31.6338 96.2887 29.3871 99.1377 27.7657C101.987 26.1443 105.241 25.3336 108.901 25.3336C112.63 25.3336 115.861 26.1443 118.594 27.7657C121.328 29.3871 123.435 31.6107 124.918 34.4365C126.4 37.2392 127.141 40.4357 127.141 44.0259C127.141 44.3965 127.13 44.8829 127.107 45.4851C127.083 46.0874 127.049 46.4927 127.002 46.7012H93.3354Z" fill="#180F38"/>
</svg>
